<svg width="20" height="21" viewBox="0 0 20 21" fill="none" xmlns="http://www.w3.org/2000/svg">
<path d="M19.75 10.4296C19.7451 12.8117 18.8709 15.1101 17.2915 16.8933C15.712 18.6764 13.5359 19.8217 11.1718 20.114C11.1191 20.1192 11.0658 20.1134 11.0154 20.097C10.965 20.0806 10.9185 20.054 10.8789 20.0188C10.8393 19.9836 10.8074 19.9405 10.7852 19.8924C10.763 19.8442 10.751 19.792 10.75 19.739V12.6796H13C13.1025 12.6798 13.204 12.659 13.2982 12.6184C13.3924 12.5778 13.4773 12.5184 13.5476 12.4437C13.6179 12.369 13.6721 12.2807 13.7069 12.1842C13.7417 12.0877 13.7564 11.9851 13.75 11.8828C13.7334 11.6888 13.6438 11.5084 13.4994 11.3779C13.355 11.2474 13.1665 11.1766 12.9718 11.1796H10.75V8.92965C10.75 8.53182 10.908 8.15029 11.1893 7.86899C11.4706 7.58768 11.8521 7.42965 12.25 7.42965H13.75C13.8525 7.42985 13.954 7.40901 14.0482 7.36842C14.1424 7.32784 14.2273 7.26836 14.2976 7.19367C14.3679 7.11899 14.4221 7.03068 14.4569 6.9342C14.4917 6.83773 14.5064 6.73514 14.5 6.63277C14.4834 6.43884 14.3938 6.25842 14.2494 6.12792C14.105 5.99742 13.9165 5.92657 13.7218 5.92965H12.25C11.4543 5.92965 10.6913 6.24572 10.1287 6.80833C9.56604 7.37094 9.24997 8.134 9.24997 8.92965V11.1796H6.99997C6.89741 11.1794 6.79589 11.2003 6.7017 11.2409C6.60751 11.2815 6.52265 11.3409 6.45235 11.4156C6.38206 11.4903 6.32783 11.5786 6.29302 11.6751C6.25821 11.7716 6.24356 11.8742 6.24997 11.9765C6.26656 12.1705 6.3561 12.3509 6.50052 12.4814C6.64494 12.6119 6.83348 12.6827 7.0281 12.6796H9.24997V19.739C9.25023 19.7916 9.23944 19.8436 9.2183 19.8918C9.19715 19.9399 9.16612 19.983 9.12723 20.0184C9.08833 20.0537 9.04243 20.0805 8.99252 20.097C8.9426 20.1135 8.88977 20.1193 8.83747 20.114C3.88747 19.514 0.0624712 15.2109 0.259346 10.064C0.369861 7.52226 1.46952 5.12437 3.3236 3.38218C5.17767 1.64 7.63929 0.691548 10.183 0.739266C12.7267 0.786984 15.151 1.8271 16.9385 3.63759C18.7259 5.44808 19.7349 7.88553 19.75 10.4296Z" fill="white"/>
</svg>
