<svg width="414" height="375" viewBox="0 0 414 375" fill="none" xmlns="http://www.w3.org/2000/svg">
<path d="M439.284 134.144C423.684 81.3286 337.191 57.8992 275.86 66.6888C205.183 76.8245 184.998 127.305 129.153 120.126C78.1932 113.59 68.9648 68.1819 31.8266 65.732C-2.30408 63.482 -51.0326 98.098 -118.695 246.558" stroke="url(#paint0_linear_1_857)" stroke-miterlimit="10"/>
<path d="M-113.737 252.053C-46.8527 105.713 1.75797 70.023 36.19 70.9834C61.7135 71.7267 74.4096 92.6928 96.3465 107.497C107.333 115.158 120.232 120.137 133.884 121.986C178.608 128.076 200.692 98.6309 245.198 81.3793C256.538 76.949 268.381 73.7663 280.482 71.8965C341.945 62.2091 426.895 81.202 443.487 131.889" stroke="url(#paint1_linear_1_857)" stroke-miterlimit="10"/>
<path d="M-108.77 257.526C-42.6629 113.315 5.80122 76.5653 40.4656 76.2546C65.947 76.0281 79.0677 95.8587 100.923 109.774C112.098 117.083 124.956 121.9 138.516 123.859C182.646 130.225 205.077 103.367 249.816 86.6148C261.182 82.3346 272.979 79.154 285.017 77.124C346.645 66.714 430.018 81.0858 447.601 129.644" stroke="url(#paint2_linear_1_857)" stroke-miterlimit="10"/>
<path d="M-103.816 262.986C-38.5024 120.934 9.84648 83.1293 44.7796 81.5143C70.2412 80.3341 83.744 99.0159 105.548 112.048C116.89 119.002 129.699 123.662 143.158 125.732C186.733 132.371 209.42 108.102 254.443 91.8521C265.838 87.6968 277.601 84.5068 289.588 82.3215C351.357 71.088 433.166 80.941 451.74 127.37" stroke="url(#paint3_linear_1_857)" stroke-miterlimit="10"/>
<path d="M-98.8558 268.489C-34.3231 128.539 13.873 89.7034 49.1048 86.7801C74.518 84.6594 88.4529 102.186 110.192 114.308C121.71 120.91 134.492 125.418 147.87 127.595C190.891 134.506 213.865 112.831 259.191 97.0717C270.594 93.0702 282.299 89.8865 294.204 87.5489C356.124 75.4907 436.37 80.8341 455.946 125.133" stroke="url(#paint4_linear_1_857)" stroke-miterlimit="10"/>
<path d="M-93.9383 273.979C-30.1539 136.145 17.8047 95.3715 53.4286 92.0367C78.8533 89.6304 93.1527 105.291 114.818 116.58C126.503 122.817 139.258 127.171 152.551 129.462C195.018 136.644 218.26 117.567 263.819 102.316C275.236 98.443 286.899 95.2537 298.736 92.7685C360.803 79.8482 439.491 80.71 460.059 122.89" stroke="url(#paint5_linear_1_857)" stroke-miterlimit="10"/>
<path d="M-88.9298 279.458C-25.9727 143.76 21.9355 102.918 57.7367 97.249C83.0384 93.3628 97.881 108.449 119.455 118.861C131.295 124.731 144.025 128.936 157.235 131.339C199.147 138.793 222.685 122.299 268.488 107.557C279.921 103.822 291.544 100.633 303.313 98.0021C365.53 84.2571 442.65 80.5722 464.214 120.651" stroke="url(#paint6_linear_1_857)" stroke-miterlimit="10"/>
<path d="M-83.972 284.945C-21.8234 151.371 25.9495 109.477 62.0684 102.564C87.2965 97.7023 102.617 111.523 124.089 121.124C136.075 126.623 148.785 130.674 161.913 133.179C203.262 140.916 227.099 127.025 273.151 112.761C283.868 109.454 295.337 106.123 307.882 103.19C370.257 88.5916 445.813 80.4636 468.366 118.395" stroke="url(#paint7_linear_1_857)" stroke-miterlimit="10"/>
<path d="M-79.0136 290.43C-17.6221 158.983 29.9782 116.137 66.3803 107.804C91.5564 102.051 107.365 114.604 128.743 123.375C140.874 128.497 153.572 132.406 166.624 135.034C207.419 143.043 231.53 131.729 277.849 117.989C288.631 114.787 300.073 111.479 312.496 108.401C374.939 92.9693 448.976 80.3453 472.519 116.138" stroke="url(#paint8_linear_1_857)" stroke-miterlimit="10"/>
<path d="M-74.0459 295.904C-13.4417 166.589 34.0048 122.779 70.7092 113.09C95.8245 106.454 112.166 117.697 133.351 125.66C145.612 130.405 158.297 134.173 171.269 136.926C211.52 145.205 235.918 136.486 282.484 123.205C293.282 120.115 304.734 116.805 317.035 113.592C379.691 97.2615 452.13 80.1708 476.666 113.844" stroke="url(#paint9_linear_1_857)" stroke-miterlimit="10"/>
<path d="M-69.0874 301.39C-9.2717 174.197 38.0335 129.44 75.0037 118.353C100.06 110.844 116.892 120.763 137.968 127.944C150.356 132.298 163.035 135.923 175.931 138.798C215.617 147.35 240.302 141.216 287.138 128.487C298.004 125.52 309.424 122.205 321.597 118.867C384.394 101.647 455.269 80.104 480.816 111.645" stroke="url(#paint10_linear_1_857)" stroke-miterlimit="10"/>
<path d="M-64.1291 306.877C-5.09059 181.814 42.0821 136.1 79.3481 123.611C104.356 115.237 121.686 123.812 142.614 130.218C154.644 133.895 166.951 137.584 180.633 140.665C219.764 149.48 244.737 145.95 291.825 133.718C302.738 130.868 314.137 127.547 326.21 124.08C389.15 105.97 458.469 79.9738 484.999 109.397" stroke="url(#paint11_linear_1_857)" stroke-miterlimit="10"/>
<path d="M-59.1701 312.361C-0.904931 189.457 46.0638 142.786 83.6644 128.879C108.622 119.632 126.478 126.841 147.251 132.49C159.509 135.825 171.825 139.361 185.316 142.534C223.896 151.648 249.141 150.677 296.493 138.95C307.454 136.226 318.842 132.897 330.763 129.298C393.833 110.281 461.61 79.8497 489.133 107.153" stroke="url(#paint12_linear_1_857)" stroke-miterlimit="10"/>
<path d="M-54.2306 317.85C3.26225 197.038 50.1575 149.469 87.9812 134.151C112.894 124.058 131.269 129.862 151.889 134.774C164.383 137.747 176.7 141.141 189.96 144.419C227.992 153.776 253.508 155.429 301.164 144.202C312.18 141.585 323.536 138.25 335.34 134.535C398.547 114.591 464.771 79.7255 493.287 104.909" stroke="url(#paint13_linear_1_857)" stroke-miterlimit="10"/>
<path d="M-49.242 323.323C7.44349 204.647 54.1838 156.18 92.3069 139.412C117.182 128.463 136.067 132.855 156.515 137.042C169.243 139.643 181.583 142.91 194.682 146.277C232.14 155.908 257.962 160.143 305.831 149.428C317.357 146.731 328.734 143.489 339.919 139.715C403.249 118.894 467.965 79.6172 497.439 102.657" stroke="url(#paint14_linear_1_857)" stroke-miterlimit="10"/>
<path d="M-44.2825 328.808C11.6258 212.263 58.2863 162.852 96.5923 144.678C121.432 132.881 140.833 135.842 161.162 139.315C174.123 141.535 186.466 144.679 199.365 148.147C236.278 158.049 262.378 164.879 310.479 154.664C322.014 152.109 333.37 148.869 344.477 144.963C407.943 123.14 471.096 79.4972 501.598 100.375" stroke="url(#paint15_linear_1_857)" stroke-miterlimit="10"/>
<path d="M-39.3225 334.294C15.7972 219.873 62.3981 169.591 100.948 149.936C125.735 137.314 145.657 138.805 165.788 141.585C178.98 143.414 191.331 146.462 204.039 150.022C240.387 160.196 266.782 169.61 315.167 159.897C326.709 157.472 338.044 154.224 349.071 150.181C412.636 127.455 474.259 79.3857 505.757 98.1714" stroke="url(#paint16_linear_1_857)" stroke-miterlimit="10"/>
<path d="M-34.3438 339.777C19.9934 227.536 66.4336 176.324 105.273 155.223C130.053 141.751 150.455 141.768 170.421 143.878C183.883 145.293 196.211 148.249 208.728 151.909C244.518 162.335 271.193 174.361 319.84 165.154C331.387 162.854 342.702 159.597 353.649 155.423C417.327 131.747 477.422 79.2841 509.912 95.9487" stroke="url(#paint17_linear_1_857)" stroke-miterlimit="10"/>
<path d="M-29.3751 345.262C24.1278 235.122 70.5318 183.069 109.611 160.538C134.368 146.237 155.246 144.762 175.072 146.228C188.736 147.265 201.119 150.1 213.424 153.854C248.662 164.57 275.621 179.169 324.517 170.441C336.068 168.265 347.365 165 358.232 160.695C422.02 136.06 480.643 79.2441 514.071 93.7667" stroke="url(#paint18_linear_1_857)" stroke-miterlimit="10"/>
<path d="M-24.4062 350.748C28.3589 242.743 74.64 189.812 113.93 165.789C138.683 150.648 160.025 147.664 179.708 148.466C193.593 149.039 205.981 151.845 218.107 155.707C252.781 166.694 280.025 183.875 329.186 175.671C340.742 173.625 352.024 170.35 362.806 165.91C426.691 140.291 483.748 79.0971 518.221 91.5116" stroke="url(#paint19_linear_1_857)" stroke-miterlimit="10"/>
<path d="M-19.4275 356.224C32.5498 250.36 78.7557 196.603 118.224 171.073C142.964 155.112 164.759 150.601 184.302 150.769C198.41 150.886 210.821 153.641 222.743 157.577C256.873 168.842 284.404 188.615 333.816 180.908C345.378 178.982 356.647 175.696 367.351 171.13C431.273 144.458 486.873 79.0158 522.355 89.2893" stroke="url(#paint20_linear_1_857)" stroke-miterlimit="10"/>
<path d="M-14.4678 361.711C68.6062 193.359 138.376 154.243 188.986 153.058C244.234 151.764 271.488 195.869 338.53 186.16C417.175 174.761 483.895 77.5336 526.53 87.0711" stroke="url(#paint21_linear_1_857)" stroke-miterlimit="10"/>
<defs>
<linearGradient id="paint0_linear_1_857" x1="140.945" y1="50.4222" x2="161.931" y2="209.547" gradientUnits="userSpaceOnUse">
<stop stop-color="#515151" stop-opacity="0.68"/>
<stop offset="1" stop-color="#515151" stop-opacity="0"/>
</linearGradient>
<linearGradient id="paint1_linear_1_857" x1="146.055" y1="55.8733" x2="167.045" y2="215.021" gradientUnits="userSpaceOnUse">
<stop stop-color="#515151" stop-opacity="0.68"/>
<stop offset="1" stop-color="#515151" stop-opacity="0"/>
</linearGradient>
<linearGradient id="paint2_linear_1_857" x1="151.12" y1="61.2823" x2="172.117" y2="220.481" gradientUnits="userSpaceOnUse">
<stop stop-color="#515151" stop-opacity="0.68"/>
<stop offset="1" stop-color="#515151" stop-opacity="0"/>
</linearGradient>
<linearGradient id="paint3_linear_1_857" x1="156.186" y1="66.6313" x2="177.195" y2="225.924" gradientUnits="userSpaceOnUse">
<stop stop-color="#515151" stop-opacity="0.68"/>
<stop offset="1" stop-color="#515151" stop-opacity="0"/>
</linearGradient>
<linearGradient id="paint4_linear_1_857" x1="161.275" y1="71.9221" x2="182.309" y2="231.407" gradientUnits="userSpaceOnUse">
<stop stop-color="#515151" stop-opacity="0.68"/>
<stop offset="1" stop-color="#515151" stop-opacity="0"/>
</linearGradient>
<linearGradient id="paint5_linear_1_857" x1="166.284" y1="77.114" x2="187.355" y2="236.88" gradientUnits="userSpaceOnUse">
<stop stop-color="#515151" stop-opacity="0.68"/>
<stop offset="1" stop-color="#515151" stop-opacity="0"/>
</linearGradient>
<linearGradient id="paint6_linear_1_857" x1="171.352" y1="82.2517" x2="192.466" y2="242.346" gradientUnits="userSpaceOnUse">
<stop stop-color="#515151" stop-opacity="0.68"/>
<stop offset="1" stop-color="#515151" stop-opacity="0"/>
</linearGradient>
<linearGradient id="paint7_linear_1_857" x1="176.393" y1="87.3822" x2="197.552" y2="247.815" gradientUnits="userSpaceOnUse">
<stop stop-color="#515151" stop-opacity="0.68"/>
<stop offset="1" stop-color="#515151" stop-opacity="0"/>
</linearGradient>
<linearGradient id="paint8_linear_1_857" x1="181.414" y1="92.3652" x2="202.637" y2="253.284" gradientUnits="userSpaceOnUse">
<stop stop-color="#515151" stop-opacity="0.68"/>
<stop offset="1" stop-color="#515151" stop-opacity="0"/>
</linearGradient>
<linearGradient id="paint9_linear_1_857" x1="186.436" y1="97.311" x2="207.726" y2="258.743" gradientUnits="userSpaceOnUse">
<stop stop-color="#515151" stop-opacity="0.68"/>
<stop offset="1" stop-color="#515151" stop-opacity="0"/>
</linearGradient>
<linearGradient id="paint10_linear_1_857" x1="191.431" y1="102.142" x2="212.805" y2="264.213" gradientUnits="userSpaceOnUse">
<stop stop-color="#515151" stop-opacity="0.68"/>
<stop offset="1" stop-color="#515151" stop-opacity="0"/>
</linearGradient>
<linearGradient id="paint11_linear_1_857" x1="196.432" y1="106.874" x2="217.903" y2="269.682" gradientUnits="userSpaceOnUse">
<stop stop-color="#515151" stop-opacity="0.68"/>
<stop offset="1" stop-color="#515151" stop-opacity="0"/>
</linearGradient>
<linearGradient id="paint12_linear_1_857" x1="201.393" y1="111.498" x2="222.976" y2="275.151" gradientUnits="userSpaceOnUse">
<stop stop-color="#515151" stop-opacity="0.68"/>
<stop offset="1" stop-color="#515151" stop-opacity="0"/>
</linearGradient>
<linearGradient id="paint13_linear_1_857" x1="206.339" y1="116.006" x2="228.049" y2="280.623" gradientUnits="userSpaceOnUse">
<stop stop-color="#515151" stop-opacity="0.68"/>
<stop offset="1" stop-color="#515151" stop-opacity="0"/>
</linearGradient>
<linearGradient id="paint14_linear_1_857" x1="211.287" y1="120.351" x2="233.144" y2="286.082" gradientUnits="userSpaceOnUse">
<stop stop-color="#515151" stop-opacity="0.68"/>
<stop offset="1" stop-color="#515151" stop-opacity="0"/>
</linearGradient>
<linearGradient id="paint15_linear_1_857" x1="216.203" y1="124.533" x2="238.229" y2="291.551" gradientUnits="userSpaceOnUse">
<stop stop-color="#515151" stop-opacity="0.68"/>
<stop offset="1" stop-color="#515151" stop-opacity="0"/>
</linearGradient>
<linearGradient id="paint16_linear_1_857" x1="221.089" y1="128.533" x2="243.308" y2="297.022" gradientUnits="userSpaceOnUse">
<stop stop-color="#515151" stop-opacity="0.68"/>
<stop offset="1" stop-color="#515151" stop-opacity="0"/>
</linearGradient>
<linearGradient id="paint17_linear_1_857" x1="225.351" y1="127.97" x2="248.366" y2="302.497" gradientUnits="userSpaceOnUse">
<stop stop-color="#515151" stop-opacity="0.68"/>
<stop offset="1" stop-color="#515151" stop-opacity="0"/>
</linearGradient>
<linearGradient id="paint18_linear_1_857" x1="229.553" y1="127.006" x2="253.415" y2="307.974" gradientUnits="userSpaceOnUse">
<stop stop-color="#515151" stop-opacity="0.68"/>
<stop offset="1" stop-color="#515151" stop-opacity="0"/>
</linearGradient>
<linearGradient id="paint19_linear_1_857" x1="233.714" y1="125.753" x2="258.462" y2="313.452" gradientUnits="userSpaceOnUse">
<stop stop-color="#515151" stop-opacity="0.68"/>
<stop offset="1" stop-color="#515151" stop-opacity="0"/>
</linearGradient>
<linearGradient id="paint20_linear_1_857" x1="237.853" y1="124.365" x2="263.503" y2="318.922" gradientUnits="userSpaceOnUse">
<stop stop-color="#515151" stop-opacity="0.68"/>
<stop offset="1" stop-color="#515151" stop-opacity="0"/>
</linearGradient>
<linearGradient id="paint21_linear_1_857" x1="241.982" y1="122.837" x2="268.554" y2="324.4" gradientUnits="userSpaceOnUse">
<stop stop-color="#515151" stop-opacity="0.68"/>
<stop offset="1" stop-color="#515151" stop-opacity="0"/>
</linearGradient>
</defs>
</svg>
