<svg width="24" height="25" viewBox="0 0 24 25" fill="none" xmlns="http://www.w3.org/2000/svg">
<path d="M12 16.1797C14.0711 16.1797 15.75 14.5008 15.75 12.4297C15.75 10.3586 14.0711 8.67969 12 8.67969C9.92893 8.67969 8.25 10.3586 8.25 12.4297C8.25 14.5008 9.92893 16.1797 12 16.1797Z" stroke="white" stroke-width="1.5" stroke-linecap="round" stroke-linejoin="round"/>
<path d="M16.125 3.80469H7.875C5.38972 3.80469 3.375 5.81941 3.375 8.30469V16.5547C3.375 19.04 5.38972 21.0547 7.875 21.0547H16.125C18.6103 21.0547 20.625 19.04 20.625 16.5547V8.30469C20.625 5.81941 18.6103 3.80469 16.125 3.80469Z" stroke="white" stroke-width="1.5" stroke-linecap="round" stroke-linejoin="round"/>
<path d="M16.875 8.49219C17.3928 8.49219 17.8125 8.07245 17.8125 7.55469C17.8125 7.03692 17.3928 6.61719 16.875 6.61719C16.3572 6.61719 15.9375 7.03692 15.9375 7.55469C15.9375 8.07245 16.3572 8.49219 16.875 8.49219Z" fill="white"/>
</svg>
