<svg width="24" height="25" viewBox="0 0 24 25" fill="none" xmlns="http://www.w3.org/2000/svg">
<path d="M19.875 3.05469H4.125C3.72718 3.05469 3.34564 3.21272 3.06434 3.49403C2.78304 3.77533 2.625 4.15686 2.625 4.55469V20.3047C2.625 20.7025 2.78304 21.084 3.06434 21.3653C3.34564 21.6467 3.72718 21.8047 4.125 21.8047H19.875C20.2728 21.8047 20.6544 21.6467 20.9357 21.3653C21.217 21.084 21.375 20.7025 21.375 20.3047V4.55469C21.375 4.15686 21.217 3.77533 20.9357 3.49403C20.6544 3.21272 20.2728 3.05469 19.875 3.05469ZM9 16.9297C9 17.1286 8.92098 17.3194 8.78033 17.46C8.63968 17.6007 8.44891 17.6797 8.25 17.6797C8.05109 17.6797 7.86032 17.6007 7.71967 17.46C7.57902 17.3194 7.5 17.1286 7.5 16.9297V10.9297C7.5 10.7308 7.57902 10.54 7.71967 10.3994C7.86032 10.2587 8.05109 10.1797 8.25 10.1797C8.44891 10.1797 8.63968 10.2587 8.78033 10.3994C8.92098 10.54 9 10.7308 9 10.9297V16.9297ZM8.25 9.05469C8.0275 9.05469 7.80999 8.98871 7.62498 8.86509C7.43998 8.74147 7.29578 8.56577 7.21064 8.36021C7.12549 8.15464 7.10321 7.92844 7.14662 7.71021C7.19002 7.49198 7.29717 7.29153 7.4545 7.13419C7.61184 6.97686 7.81229 6.86971 8.03052 6.8263C8.24875 6.7829 8.47495 6.80517 8.68052 6.89032C8.88609 6.97547 9.06179 7.11967 9.1854 7.30467C9.30902 7.48968 9.375 7.70718 9.375 7.92969C9.375 8.22806 9.25647 8.5142 9.0455 8.72518C8.83452 8.93616 8.54837 9.05469 8.25 9.05469ZM17.25 16.9297C17.25 17.1286 17.171 17.3194 17.0303 17.46C16.8897 17.6007 16.6989 17.6797 16.5 17.6797C16.3011 17.6797 16.1103 17.6007 15.9697 17.46C15.829 17.3194 15.75 17.1286 15.75 16.9297V13.5547C15.75 13.0574 15.5525 12.5805 15.2008 12.2289C14.8492 11.8772 14.3723 11.6797 13.875 11.6797C13.3777 11.6797 12.9008 11.8772 12.5492 12.2289C12.1975 12.5805 12 13.0574 12 13.5547V16.9297C12 17.1286 11.921 17.3194 11.7803 17.46C11.6397 17.6007 11.4489 17.6797 11.25 17.6797C11.0511 17.6797 10.8603 17.6007 10.7197 17.46C10.579 17.3194 10.5 17.1286 10.5 16.9297V10.9297C10.4995 10.7451 10.567 10.5668 10.6898 10.429C10.8125 10.2911 10.9817 10.2033 11.1651 10.1824C11.3485 10.1615 11.5331 10.209 11.6837 10.3157C11.8343 10.4225 11.9402 10.581 11.9813 10.7609C12.4887 10.4169 13.0803 10.2176 13.6925 10.1845C14.3047 10.1514 14.9144 10.2856 15.4561 10.5728C15.9977 10.86 16.4509 11.2894 16.767 11.8147C17.083 12.3401 17.25 12.9416 17.25 13.5547V16.9297Z" fill="white"/>
</svg>
