<svg width="1440" height="727" viewBox="0 0 1440 727" fill="none" xmlns="http://www.w3.org/2000/svg">
<path d="M1253.05 305.461C1231.92 170.52 1028.01 85.7792 875.236 88.248C699.182 91.1098 633.578 209.113 499.361 173.972C376.88 141.944 368.942 27.2356 278.936 9.59057C196.218 -6.62189 65.9402 63.3876 -147.288 407.828" stroke="url(#paint0_linear_1_425)" stroke-miterlimit="10"/>
<path d="M-136.926 422.976C73.7163 83.5119 204.052 10.8222 287.921 23.9529C350.082 33.7639 374.369 89.3644 423.233 132.681C447.625 154.982 477.556 171.276 510.338 180.099C617.717 209.078 681.189 143.472 795.554 114.904C824.704 107.54 854.681 103.405 884.869 102.584C1038.25 97.9449 1239.82 171.278 1264.06 301.287" stroke="url(#paint1_linear_1_425)" stroke-miterlimit="10"/>
<path d="M-126.537 438.072C81.5203 103.607 211.839 28.2609 296.686 38.3342C359.055 45.7438 384.747 98.6809 433.695 139.783C458.664 161.275 488.548 177.158 521.069 186.221C626.905 215.697 690.394 156.569 805.166 129.304C834.333 122.318 864.197 118.174 894.282 116.939C1048.3 110.572 1247.5 172.032 1274.85 297.109" stroke="url(#paint2_linear_1_425)" stroke-miterlimit="10"/>
<path d="M-116.176 453.124C89.2462 123.729 219.623 45.7488 305.547 52.6941C368.175 57.7488 395.17 107.976 444.28 146.887C469.77 167.557 499.584 183.039 531.821 192.345C636.215 222.318 699.496 169.646 814.8 143.707C843.996 137.037 873.782 132.859 903.79 131.226C1058.42 122.875 1255.25 172.718 1285.71 292.863" stroke="url(#paint3_linear_1_425)" stroke-miterlimit="10"/>
<path d="M-105.814 468.294C97.0228 143.829 227.358 63.2623 314.433 67.0794C377.246 69.8028 405.67 117.32 454.915 153.97C480.946 173.829 510.744 188.926 542.749 198.471C645.7 228.94 708.848 182.748 824.734 158.11C853.9 151.822 883.543 147.642 913.4 145.607C1068.66 135.273 1263.13 173.522 1296.72 288.735" stroke="url(#paint4_linear_1_425)" stroke-miterlimit="10"/>
<path d="M-95.5513 483.413C104.774 163.925 235.153 78.511 323.319 81.4371C386.252 83.4609 416.168 126.497 465.499 161.072C492.058 180.084 521.839 194.796 553.602 204.593C655.11 235.558 718.075 195.845 834.368 172.534C863.527 166.565 893.068 162.358 922.809 159.939C1078.71 147.528 1270.81 174.253 1307.51 284.556" stroke="url(#paint5_linear_1_425)" stroke-miterlimit="10"/>
<path d="M-85.0626 498.536C112.553 184.048 242.83 98.4485 332.182 95.6828C395.291 94.0237 426.719 135.817 476.111 168.201C503.167 186.36 532.936 200.695 564.457 210.742C664.522 242.204 727.379 208.947 844.104 186.962C873.258 181.34 902.702 177.121 932.321 174.321C1088.86 159.926 1278.58 174.965 1318.4 280.405" stroke="url(#paint6_linear_1_425)" stroke-miterlimit="10"/>
<path d="M-74.7007 513.656C120.254 204.146 250.54 115.913 341.069 110.182C404.312 106.099 437.317 144.925 486.72 175.282C514.252 192.57 544.02 206.52 575.309 216.796C673.907 248.777 736.656 222.022 853.838 201.294C881.104 196.5 910.216 191.884 941.829 188.584C1099.02 172.135 1286.36 175.743 1329.28 276.205" stroke="url(#paint7_linear_1_425)" stroke-miterlimit="10"/>
<path d="M-64.3374 528.778C128.082 224.267 258.252 133.636 349.931 124.497C413.335 118.199 447.941 154.057 497.381 182.34C525.39 198.748 555.174 212.343 586.237 222.897C683.393 255.375 745.984 235.053 863.648 215.697C891.04 211.182 920.078 206.613 951.439 202.918C1109.07 184.44 1294.14 176.5 1340.17 272.006" stroke="url(#paint8_linear_1_425)" stroke-miterlimit="10"/>
<path d="M-53.9493 543.876C135.859 244.366 265.965 151.311 358.819 138.928C422.358 130.439 458.69 163.236 507.917 189.469C536.366 204.987 566.163 218.235 596.992 229.07C692.73 262.043 755.187 248.2 873.308 230.054C900.702 225.819 929.765 221.25 960.874 217.183C1119.31 196.557 1301.92 177.118 1351.06 267.715" stroke="url(#paint9_linear_1_425)" stroke-miterlimit="10"/>
<path d="M-43.5875 558.998C143.61 264.466 273.675 169.034 367.63 153.29C431.305 142.633 469.262 172.323 518.477 196.598C547.36 211.193 577.191 224.084 607.794 235.196C702.064 268.666 764.389 261.278 882.992 244.574C910.513 240.665 939.501 236.073 970.334 231.658C1129.41 208.885 1309.62 177.993 1361.92 263.657" stroke="url(#paint10_linear_1_425)" stroke-miterlimit="10"/>
<path d="M-33.2241 574.12C151.388 284.588 281.438 186.757 376.568 167.651C440.403 154.85 480.01 181.386 529.113 203.704C557.339 216.523 586.24 229.455 618.698 241.321C711.525 275.265 773.717 274.379 892.777 258.978C920.375 255.371 949.312 250.756 979.944 245.993C1139.65 221.073 1317.5 178.727 1372.88 259.482" stroke="url(#paint11_linear_1_425)" stroke-miterlimit="10"/>
<path d="M-22.8599 589.239C159.167 304.778 289.027 204.525 385.431 182.034C449.427 167.065 490.759 190.399 539.725 210.807C568.619 222.854 597.592 235.413 629.553 247.445C720.938 281.954 782.97 287.454 902.513 273.379C930.188 270.099 959.1 265.46 989.405 260.326C1149.72 233.212 1325.22 179.46 1383.72 255.305" stroke="url(#paint12_linear_1_425)" stroke-miterlimit="10"/>
<path d="M-12.5477 604.363C166.918 324.81 296.888 222.32 394.293 196.422C458.449 179.355 501.505 199.395 550.334 217.94C579.922 229.167 608.942 241.376 640.306 253.597C730.272 288.533 792.123 300.582 912.247 287.833C940.023 284.831 968.86 280.17 998.914 274.71C1159.87 245.357 1333 180.198 1394.61 251.134" stroke="url(#paint13_linear_1_425)" stroke-miterlimit="10"/>
<path d="M-2.10866 619.461C174.697 344.91 304.577 240.161 403.181 210.786C467.524 191.597 512.278 208.32 560.921 225.024C591.201 235.409 620.319 247.315 651.26 259.701C739.734 295.133 801.501 313.637 921.982 302.214C951.029 299.176 979.889 294.75 1008.45 288.953C1169.98 257.477 1340.85 180.981 1405.49 246.938" stroke="url(#paint14_linear_1_425)" stroke-miterlimit="10"/>
<path d="M8.2548 634.584C182.475 365.034 312.464 257.932 411.969 225.15C476.497 203.864 522.975 217.222 571.556 232.132C602.529 241.652 631.695 253.254 662.114 265.829C749.17 301.757 810.779 326.74 931.668 316.62C960.691 313.935 989.498 309.506 1017.91 303.361C1180.1 269.458 1348.56 181.719 1416.4 242.674" stroke="url(#paint15_linear_1_425)" stroke-miterlimit="10"/>
<path d="M18.6193 649.705C190.228 385.135 320.354 275.866 420.932 239.513C485.597 216.176 533.822 226.077 582.143 239.217C613.808 247.848 643.022 259.217 672.943 271.957C758.532 308.381 820.032 339.819 941.453 331.025C970.452 328.663 999.21 324.207 1027.47 317.697C1190.2 281.601 1356.33 182.48 1427.29 238.595" stroke="url(#paint16_linear_1_425)" stroke-miterlimit="10"/>
<path d="M29.0143 664.827C198.013 405.359 328.048 293.741 429.8 253.912C494.725 228.477 544.598 234.899 592.734 246.338C625.19 254.032 654.378 265.168 683.801 278.097C767.946 314.969 829.289 352.931 951.191 345.463C980.162 343.409 1008.88 338.925 1036.98 332.067C1200.29 293.663 1364.11 183.232 1438.18 234.437" stroke="url(#paint17_linear_1_425)" stroke-miterlimit="10"/>
<path d="M39.3825 679.951C205.669 425.375 335.89 311.664 438.691 268.384C503.827 240.898 555.348 243.792 603.348 253.601C636.422 260.43 665.782 271.285 694.658 284.379C777.36 321.793 838.57 366.185 960.928 359.973C989.87 358.227 1018.54 353.715 1046.5 346.508C1210.39 305.773 1372.02 184.149 1449.07 230.375" stroke="url(#paint18_linear_1_425)" stroke-miterlimit="10"/>
<path d="M49.7516 695.073C213.552 445.505 343.757 329.585 447.557 282.69C512.954 253.13 566.096 252.452 613.961 260.583C647.726 266.337 677.11 277.121 705.514 290.427C786.748 328.336 847.824 379.181 970.664 374.342C999.577 372.916 1028.21 368.375 1056.01 360.808C1220.46 317.672 1379.67 184.764 1459.95 226.126" stroke="url(#paint19_linear_1_425)" stroke-miterlimit="10"/>
<path d="M60.1461 710.168C221.335 465.608 351.626 347.617 456.349 297.061C521.982 265.475 576.722 261.177 624.451 267.702C658.907 272.403 688.365 283.07 716.246 296.494C796.062 334.921 857.005 392.242 980.301 388.706C1009.19 387.576 1037.8 383.005 1065.44 375.104C1230.32 329.381 1387.35 185.538 1470.79 221.944" stroke="url(#paint20_linear_1_425)" stroke-miterlimit="10"/>
<path d="M70.4902 725.289C327.849 336.474 511.04 261.913 635.164 274.821C770.663 288.909 823.089 406.099 990.138 403.141C1186.1 399.647 1380.56 180.957 1481.73 217.788" stroke="url(#paint21_linear_1_425)" stroke-miterlimit="10"/>
<defs>
<linearGradient id="paint0_linear_1_425" x1="550.636" y1="6.00622" x2="552.577" y2="404.418" gradientUnits="userSpaceOnUse">
<stop stop-color="#515151"/>
<stop offset="1" stop-color="#515151" stop-opacity="0"/>
</linearGradient>
<linearGradient id="paint1_linear_1_425" x1="561.383" y1="21.0942" x2="563.325" y2="419.565" gradientUnits="userSpaceOnUse">
<stop stop-color="#515151"/>
<stop offset="1" stop-color="#515151" stop-opacity="0"/>
</linearGradient>
<linearGradient id="paint2_linear_1_425" x1="572.034" y1="36.0617" x2="573.976" y2="434.659" gradientUnits="userSpaceOnUse">
<stop stop-color="#515151"/>
<stop offset="1" stop-color="#515151" stop-opacity="0"/>
</linearGradient>
<linearGradient id="paint3_linear_1_425" x1="582.705" y1="50.8765" x2="584.648" y2="449.709" gradientUnits="userSpaceOnUse">
<stop stop-color="#515151"/>
<stop offset="1" stop-color="#515151" stop-opacity="0"/>
</linearGradient>
<linearGradient id="paint4_linear_1_425" x1="593.451" y1="65.5622" x2="595.396" y2="464.878" gradientUnits="userSpaceOnUse">
<stop stop-color="#515151"/>
<stop offset="1" stop-color="#515151" stop-opacity="0"/>
</linearGradient>
<linearGradient id="paint5_linear_1_425" x1="604.032" y1="79.9747" x2="605.981" y2="479.995" gradientUnits="userSpaceOnUse">
<stop stop-color="#515151"/>
<stop offset="1" stop-color="#515151" stop-opacity="0"/>
</linearGradient>
<linearGradient id="paint6_linear_1_425" x1="614.777" y1="94.2742" x2="616.73" y2="495.117" gradientUnits="userSpaceOnUse">
<stop stop-color="#515151"/>
<stop offset="1" stop-color="#515151" stop-opacity="0"/>
</linearGradient>
<linearGradient id="paint7_linear_1_425" x1="625.458" y1="108.542" x2="627.415" y2="510.236" gradientUnits="userSpaceOnUse">
<stop stop-color="#515151"/>
<stop offset="1" stop-color="#515151" stop-opacity="0"/>
</linearGradient>
<linearGradient id="paint8_linear_1_425" x1="636.137" y1="122.443" x2="638.1" y2="525.356" gradientUnits="userSpaceOnUse">
<stop stop-color="#515151"/>
<stop offset="1" stop-color="#515151" stop-opacity="0"/>
</linearGradient>
<linearGradient id="paint9_linear_1_425" x1="646.828" y1="136.254" x2="648.797" y2="540.452" gradientUnits="userSpaceOnUse">
<stop stop-color="#515151"/>
<stop offset="1" stop-color="#515151" stop-opacity="0"/>
</linearGradient>
<linearGradient id="paint10_linear_1_425" x1="657.491" y1="149.772" x2="659.468" y2="555.573" gradientUnits="userSpaceOnUse">
<stop stop-color="#515151"/>
<stop offset="1" stop-color="#515151" stop-opacity="0"/>
</linearGradient>
<linearGradient id="paint11_linear_1_425" x1="668.204" y1="163.044" x2="670.19" y2="570.693" gradientUnits="userSpaceOnUse">
<stop stop-color="#515151"/>
<stop offset="1" stop-color="#515151" stop-opacity="0"/>
</linearGradient>
<linearGradient id="paint12_linear_1_425" x1="678.853" y1="176.038" x2="680.849" y2="585.81" gradientUnits="userSpaceOnUse">
<stop stop-color="#515151"/>
<stop offset="1" stop-color="#515151" stop-opacity="0"/>
</linearGradient>
<linearGradient id="paint13_linear_1_425" x1="689.498" y1="188.743" x2="691.506" y2="600.933" gradientUnits="userSpaceOnUse">
<stop stop-color="#515151"/>
<stop offset="1" stop-color="#515151" stop-opacity="0"/>
</linearGradient>
<linearGradient id="paint14_linear_1_425" x1="700.205" y1="201.043" x2="702.227" y2="616.03" gradientUnits="userSpaceOnUse">
<stop stop-color="#515151"/>
<stop offset="1" stop-color="#515151" stop-opacity="0"/>
</linearGradient>
<linearGradient id="paint15_linear_1_425" x1="710.884" y1="212.936" x2="712.922" y2="631.151" gradientUnits="userSpaceOnUse">
<stop stop-color="#515151"/>
<stop offset="1" stop-color="#515151" stop-opacity="0"/>
</linearGradient>
<linearGradient id="paint16_linear_1_425" x1="721.548" y1="224.364" x2="723.604" y2="646.271" gradientUnits="userSpaceOnUse">
<stop stop-color="#515151"/>
<stop offset="1" stop-color="#515151" stop-opacity="0"/>
</linearGradient>
<linearGradient id="paint17_linear_1_425" x1="732.154" y1="224.331" x2="734.284" y2="661.391" gradientUnits="userSpaceOnUse">
<stop stop-color="#515151"/>
<stop offset="1" stop-color="#515151" stop-opacity="0"/>
</linearGradient>
<linearGradient id="paint18_linear_1_425" x1="742.74" y1="223.287" x2="744.948" y2="676.514" gradientUnits="userSpaceOnUse">
<stop stop-color="#515151"/>
<stop offset="1" stop-color="#515151" stop-opacity="0"/>
</linearGradient>
<linearGradient id="paint19_linear_1_425" x1="753.321" y1="221.516" x2="755.611" y2="691.635" gradientUnits="userSpaceOnUse">
<stop stop-color="#515151"/>
<stop offset="1" stop-color="#515151" stop-opacity="0"/>
</linearGradient>
<linearGradient id="paint20_linear_1_425" x1="763.888" y1="219.398" x2="766.262" y2="706.728" gradientUnits="userSpaceOnUse">
<stop stop-color="#515151"/>
<stop offset="1" stop-color="#515151" stop-opacity="0"/>
</linearGradient>
<linearGradient id="paint21_linear_1_425" x1="774.477" y1="216.931" x2="776.937" y2="721.848" gradientUnits="userSpaceOnUse">
<stop stop-color="#515151"/>
<stop offset="1" stop-color="#515151" stop-opacity="0"/>
</linearGradient>
</defs>
</svg>
