<svg width="21" height="22" viewBox="0 0 21 22" fill="none" xmlns="http://www.w3.org/2000/svg">
<path d="M11.7301 16.5804L12.3393 17.6C16.5569 14.5157 18.9 10.7687 18.9 7.68436C18.9 4.70201 16.8849 3.30005 15.1745 3.30005C13.0188 3.30005 11.4958 5.28828 11.4958 7.37848C11.4958 9.1373 12.5268 10.6412 13.9092 11.202C14.3075 11.355 14.6824 11.4824 14.6824 12.2216C14.6824 13.1648 14.0498 14.5667 11.7301 16.5804ZM2.42801 16.5804L3.03721 17.6C7.20792 14.5157 9.59788 10.7687 9.59788 7.68436C9.59788 4.70201 7.53596 3.30005 5.8255 3.30005C3.64642 3.30005 2.09998 5.28828 2.09998 7.37848C2.09998 9.1373 3.15437 10.6412 4.58366 11.202C4.98198 11.355 5.33345 11.4824 5.33345 12.2216C5.33345 13.1648 4.67738 14.5667 2.42801 16.5804Z" fill="#E1E8F1"/>
</svg>
