<svg width="24" height="25" viewBox="0 0 24 25" fill="none" xmlns="http://www.w3.org/2000/svg">
<path d="M23.0344 7.71415L20.2031 10.536C19.6406 17.0892 14.1094 22.1798 7.50001 22.1798C6.14063 22.1798 5.01563 21.9641 4.16251 21.5423C3.47813 21.1954 3.19688 20.8298 3.12188 20.7173C3.05983 20.623 3.01984 20.516 3.0049 20.4041C2.98996 20.2923 3.00046 20.1785 3.0356 20.0713C3.07074 19.964 3.12963 19.8661 3.20788 19.7848C3.28612 19.7035 3.3817 19.6409 3.48751 19.6017C3.50626 19.5923 5.71876 18.7485 7.15313 17.1266C6.26358 16.4933 5.48171 15.7209 4.83751 14.8392C3.55313 13.0954 2.19376 10.0673 3.00938 5.54853C3.03502 5.41419 3.09646 5.28927 3.18722 5.18696C3.27798 5.08465 3.39468 5.00875 3.52501 4.96728C3.65574 4.92447 3.79574 4.91844 3.92967 4.94986C4.0636 4.98127 4.18632 5.04892 4.28438 5.1454C4.31251 5.1829 7.43438 8.2579 11.25 9.25165V8.67978C11.2537 8.08513 11.3745 7.49703 11.6054 6.94906C11.8364 6.40109 12.173 5.90399 12.5961 5.48612C13.0192 5.06825 13.5205 4.73781 14.0713 4.51367C14.6221 4.28953 15.2116 4.17607 15.8063 4.17978C16.5867 4.19091 17.351 4.40401 18.0246 4.79832C18.6982 5.19263 19.2582 5.7547 19.65 6.42978H22.5C22.6481 6.42931 22.793 6.47269 22.9164 6.55444C23.0399 6.63619 23.1364 6.75265 23.1938 6.88915C23.2478 7.02768 23.2615 7.17868 23.2333 7.32468C23.2051 7.47068 23.1361 7.60571 23.0344 7.71415Z" fill="white"/>
</svg>
